<?xml version="1.0" encoding="UTF-8" standalone="no"?><!DOCTYPE svg PUBLIC "-//W3C//DTD SVG 1.1//EN" "http://www.w3.org/Graphics/SVG/1.1/DTD/svg11.dtd"><svg width="100%" height="100%" viewBox="0 0 1667 1667" version="1.1" xmlns="http://www.w3.org/2000/svg" xmlns:xlink="http://www.w3.org/1999/xlink" xml:space="preserve" xmlns:serif="http://www.serif.com/" style="fill-rule:evenodd;clip-rule:evenodd;stroke-linejoin:round;stroke-miterlimit:2;"><g id="svgg"><path d="M1504.17,471.083c-0,-170.311 -138.272,-308.583 -308.584,-308.583l-724.5,-0c-170.311,-0 -308.583,138.272 -308.583,308.583l-0,724.5c-0,170.312 138.272,308.584 308.583,308.584l724.5,-0c170.312,-0 308.584,-138.272 308.584,-308.584l-0,-724.5Z"/><path id="path0" d="M860.366,833.429c-0,410.747 0.049,431.6 1.008,431.415c0.93,-0.18 1.021,-1.552 1.161,-17.616c0.112,-12.626 0.336,-17.423 0.813,-17.423c0.565,-0 52.077,13.042 79.991,20.254c15.314,3.956 20.431,0.602 21.728,-14.233c0.711,-8.139 -1.378,-9.618 -20.41,-14.446c-13.78,-3.496 -17.84,-4.826 -14.726,-4.826c1.985,-0 16.424,-2.753 26.083,-4.972c171.889,-39.501 300.769,-179.34 322.646,-350.083c19.978,-155.906 -50.535,-309.309 -182.168,-396.316c-14.504,-9.584 -15.184,-9.912 -16.653,-8c-1.489,1.937 -1.807,1.557 5.673,6.763c10.464,7.28 11.417,7.98 20.022,14.723c118.676,92.989 175.952,243.277 150.663,395.339c-30.515,183.512 -194.791,326.56 -381.911,332.56l-11.722,0.375l0.414,-11.758c0.227,-6.47 0.482,-11.842 0.568,-11.939c0.083,-0.099 5.638,-0.419 12.342,-0.713c12.11,-0.532 20.749,-1.198 29.854,-2.308c2.615,-0.32 5.727,-0.682 6.915,-0.807c47.042,-4.949 110.691,-28.656 155.137,-57.789c216.265,-141.751 234.743,-449.752 36.878,-614.666c-65.398,-54.51 -146.371,-85.544 -230.258,-88.252l-11.017,-0.357l-0.359,-3.8c-0.198,-2.091 -0.359,-5.81 -0.362,-8.266c-0.005,-4.081 -0.104,-4.466 -1.156,-4.466c-1.151,-0 -1.154,0.385 -1.154,431.607m267.894,-421.669c-3.076,11.667 -1.55,30.185 3.823,46.386c6.602,19.908 21.361,41.673 30.026,44.283c3.781,1.138 3.865,1.106 5.552,-1.995c11.421,-20.981 -8.07,-76.439 -32.226,-91.695c-5.329,-3.365 -5.514,-3.287 -7.175,3.021m-796.405,1.596c-13.46,3.412 -19.155,14.202 -19.155,36.29c-0,23.447 5.951,33.703 20.754,35.76c18.845,2.623 30.245,-11.118 30.234,-36.448c-0.01,-26.005 -12.886,-40.404 -31.833,-35.602m303.798,0.17c-12.991,3.758 -19.148,15.029 -19.252,35.255c-0.12,23.158 6.529,34.576 21.343,36.636c20.502,2.852 32.755,-15.343 29.643,-44.009c-2.328,-21.46 -15.113,-32.693 -31.734,-27.882m123.017,-0.375c-14.894,3.19 -22.778,19.673 -20.577,43.016c1.727,18.343 8.324,27.455 21.166,29.239c18.577,2.584 30.224,-11.196 30.234,-35.776c0.011,-26.174 -12.089,-40.495 -30.823,-36.479m-371.931,5.969c-5.862,3.141 -10.904,5.802 -11.201,5.912c-0.675,0.247 2.529,7.93 3.453,8.284c0.37,0.141 4.209,-1.682 8.53,-4.05l7.86,-4.307l-0,50.616l-17.861,-0l-0,9.217l44.944,-0l-0,-9.217l-16.134,-0l-0,-62.229l-4.467,0.031l-4.464,0.031l-10.66,5.712m60.643,0.073c-6.099,3.201 -11.092,6.112 -11.092,6.469c-0.002,1.232 3.058,7.85 3.631,7.85c0.536,-0 6.565,-3.136 13.511,-7.032l3.027,-1.696l-0,50.791l-18.439,-0l-0,9.217l44.943,-0l0,-9.217l-15.558,-0l-0,-62.229l-4.464,0.013l-4.467,0.013l-11.092,5.821m60.932,-0.06c-5.862,3.138 -10.876,5.784 -11.139,5.881c-0.643,0.234 2.568,7.985 3.449,8.323c0.382,0.146 3.5,-1.276 6.93,-3.164c3.43,-1.886 7.078,-3.857 8.107,-4.381l1.873,-0.953l-0,50.736l-18.439,-0l-0,9.217l44.943,-0l0,-9.217l-15.555,-0l-0,-62.229l-4.756,0.042l-4.753,0.041l-10.66,5.704m182.364,0.06c-6.021,3.198 -11.045,5.901 -11.168,6.013c-0.445,0.404 3.123,8.303 3.753,8.303c0.581,0.003 4.084,-1.828 13.322,-6.967l3.026,-1.682l-0,50.715l-17.864,-0l0,9.217l44.944,-0l0,-9.217l-16.134,-0l0,-62.229l-4.464,0.018l-4.466,0.018l-10.949,5.811m121.864,-0.086c-5.863,3.141 -10.902,5.805 -11.202,5.917c-0.653,0.25 2.519,7.933 3.417,8.277c0.349,0.135 4.188,-1.683 8.532,-4.035l7.897,-4.279l-0,50.588l-17.861,-0l-0,9.217l44.941,-0l0,-9.217l-16.131,-0l-0,-62.229l-8.933,0.047l-10.66,5.714m-469.087,3.818c2.224,1.109 3.57,2.318 5.034,4.524c3.659,5.513 4.144,4.831 -11.879,16.704l-14.115,10.459l-0.164,-6.177c-0.513,-19.588 9.276,-31.414 21.124,-25.51m303.019,-0.62c3.583,1.495 8.769,7.743 8.769,10.563c-0,0.821 -28.224,21.588 -28.693,21.114c-0.677,-0.688 -0.166,-12.233 0.73,-16.53c2.56,-12.287 10.683,-18.697 19.194,-15.147m122.689,0.573c2.084,1.039 3.55,2.349 5.032,4.5c3.805,5.527 4.3,4.829 -12.004,16.916l-14.342,10.631l0.326,-8.545c0.739,-19.39 9.516,-29.219 20.988,-23.502m109.353,7.764c56.804,3.083 109.522,17.957 158.742,44.782c9.678,5.276 28.96,17.282 34.349,21.39c0.682,0.518 1.828,1.333 2.547,1.807c42.149,27.903 87.942,80.499 114.124,131.083c124.593,240.72 -43.98,531.379 -313.835,541.127l-10.618,0.386l-0,-8.087c-0,-4.446 0.161,-8.894 0.359,-9.886l0.359,-1.8l4.683,-0.005c21.223,-0.026 56.846,-5.115 80.777,-11.54c150.408,-40.376 255.06,-172.298 260.487,-328.367l0.381,-10.988l3.328,-0c4.743,-0 6.287,-0.704 6.287,-2.865l0,-1.745l-9.795,-0l-0,-2.326c-0,-96.013 -49.017,-197.612 -126.474,-262.154c-59.413,-49.504 -141.23,-80.566 -212.426,-80.649l-6.724,-0.008l-0.32,-3.599c-0.175,-1.982 -0.482,-6.649 -0.678,-10.374l-0.359,-6.768l2.216,0.01c1.222,0.005 6.886,0.266 12.59,0.576m302.035,9.063c-2.563,4.531 -5.8,19.457 -6.467,29.82c-1.508,23.434 9.524,57.554 22.77,70.422c5.149,5.003 5.506,5.05 8.904,1.17c10.465,-11.952 7.524,-51.89 -5.763,-78.311c-4.821,-9.587 -18.137,-25.406 -19.444,-23.101m-827.288,15.126c-1.185,13.561 -5.615,20.627 -13.876,22.124c-5.363,0.972 -11.329,-2.836 -13.96,-8.915l-1.388,-3.211l14.496,-10.771l14.496,-10.775l0.38,2.748c0.211,1.513 0.143,5.472 -0.148,8.8m303.459,5.758c-3.844,18.439 -21.632,22.833 -27.497,6.79l-0.953,-2.607l14.493,-10.772l14.496,-10.771l0.162,6.617c0.104,4.251 -0.146,8.092 -0.701,10.743m122.338,-5.623c-1.081,13.129 -5.74,20.515 -13.868,21.989c-5.368,0.974 -11.329,-2.836 -13.962,-8.922l-1.394,-3.219l14.499,-10.767l14.501,-10.766l0.344,3.039c0.187,1.669 0.133,5.56 -0.12,8.646m102.914,11.975c162.42,11.71 291,134.68 309.96,296.438c1.099,9.392 2.37,30.695 1.86,31.206c-0.487,0.487 -77.965,-4.118 -78.605,-4.67c-0.081,-0.068 -0.409,-3.474 -0.732,-7.568c-5.972,-75.751 -42.001,-141.814 -101.688,-186.458c-38.884,-29.083 -88.619,-47.493 -134.581,-49.822c-4.12,-0.208 -7.602,-0.554 -7.735,-0.77c-0.354,-0.571 -1.227,-14.02 -2.86,-44.082c-0.792,-14.579 -1.586,-28.385 -1.763,-30.682l-0.326,-4.178l4.201,0.003c2.31,-0 7.832,0.263 12.269,0.583m340.343,23.757c-11.704,23.505 -11.965,56.44 -0.669,84.874c7.735,19.466 17.061,19.479 21.871,0.029c7.996,-32.333 2.089,-68.162 -14.519,-88.072c-3.089,-3.701 -3.316,-3.594 -6.683,3.169m38.261,47.038c-16.538,22.213 -21.676,61.963 -11.801,91.278c4.318,12.822 13.335,13.382 18.736,1.164c13.259,-29.979 13.91,-64.854 1.677,-89.926c-4.422,-9.066 -3.857,-8.902 -8.612,-2.516m-380.044,35.815c47.837,4.313 97.167,25.753 130.795,56.844c1.742,1.612 4.747,4.378 6.675,6.149c38.227,35.06 64.138,90.241 69.086,147.142l0.365,4.169l-2.485,-0.289c-1.365,-0.159 -10.519,-1.078 -20.345,-2.042c-102.735,-10.084 -142.108,-26.88 -162.118,-69.151c-14.819,-31.31 -24.311,-75.785 -30.218,-141.551c-0.196,-2.179 -0.805,-2.086 8.245,-1.271m411.335,14.83c-15.972,16.98 -24.968,42.891 -24.944,71.862c0.015,21.124 4.294,31.315 11.399,27.151c21.476,-12.587 34.388,-72.777 21.218,-98.901c-2.745,-5.441 -2.662,-5.441 -7.673,-0.112m-959.267,16.855c-13.707,2.865 -19.902,14.251 -19.902,36.568c-0,24.33 6.727,34.797 23.046,35.855c18.413,1.195 28.916,-13.754 27.786,-39.545c-1.065,-24.312 -12.707,-36.685 -30.93,-32.878m182.783,0.011c-14.129,2.789 -21.556,16.845 -20.749,39.261c0.807,22.465 8.826,32.963 25.203,33.005c20.03,0.049 29.942,-19.155 25.259,-48.944c-2.708,-17.231 -14.334,-26.356 -29.713,-23.322m304.173,-0.021c-13.775,2.883 -20.853,15.407 -20.835,36.867c0.018,20.432 6.873,32.737 19.577,35.146c21.265,4.032 34.076,-13.097 31.667,-42.334c-1.795,-21.767 -13.52,-33.213 -30.409,-29.679m-432.532,5.795c-13.308,7.029 -12.285,5.917 -9.985,10.844l1.919,4.113l7.983,-4.332c4.388,-2.38 8.084,-4.331 8.209,-4.331c0.127,0 0.229,11.28 0.229,25.065l-0,25.064l-17.861,0l-0,9.22l44.944,-0l-0,-9.22l-16.134,0l-0,-62.229l-4.178,0.013c-4.172,0.014 -4.19,0.021 -15.126,5.793m60.369,0.158c-6.094,3.217 -11.084,6.178 -11.092,6.582c-0.005,0.403 0.761,2.437 1.706,4.521l1.716,3.789l3.613,-2c8.295,-4.589 12.376,-6.756 12.738,-6.756c0.211,0 0.383,11.28 0.383,25.065l-0,25.064l-18.439,0l-0,9.22l44.943,-0l0,-9.22l-15.558,0l-0,-62.229l-4.464,0.058l-4.467,0.057l-11.079,5.849m182.497,0.073c-6.86,3.662 -11.173,6.29 -11.069,6.751c0.224,1.01 3.133,7.956 3.331,7.956c0.086,0 3.938,-2.055 8.558,-4.565l8.397,-4.568l-0,50.618l-18.437,0l0,9.22l44.941,-0l0,-9.22l-15.556,0l0,-62.229l-4.466,0.019l-4.464,0.018l-11.235,6m61.492,-0.359c-5.949,3.104 -11.087,5.917 -11.418,6.248c-0.552,0.549 1.696,7.136 2.854,8.37c0.217,0.227 3.949,-1.523 8.295,-3.891c4.347,-2.367 8.035,-4.305 8.199,-4.305c0.161,0 0.297,11.28 0.297,25.065l-0,25.064l-17.864,0l0,9.22l44.944,-0l0,-9.22l-16.134,0l0,-62.229l-4.177,0.016c-4.154,0.016 -4.235,0.044 -14.996,5.662m68.437,-4.037c-1.583,0.896 -6.69,3.623 -11.347,6.061l-8.467,4.43l1.761,4.161c0.969,2.29 1.839,4.248 1.932,4.35c0.092,0.101 3.954,-1.888 8.577,-4.42l8.409,-4.607l0,50.613l-18.439,0l0,9.22l44.944,-0l-0,-9.22l-15.559,0l0,-62.229l-4.464,0.006c-3.831,0.005 -4.875,0.237 -7.347,1.635m-418.262,7.274c4.021,1.196 9.519,7.483 9.438,10.798c-0.01,0.409 -6.428,5.469 -14.262,11.248l-14.24,10.504l-0.167,-5.602c-0.445,-14.991 4.352,-25.242 12.751,-27.242c2.742,-0.654 3.38,-0.625 6.48,0.294m184.598,0.873c4.081,2.081 8.514,9.047 6.829,10.732c-2.126,2.126 -27.906,20.794 -28.352,20.528c-0.682,-0.406 0.05,-12.116 1.055,-16.848c2.75,-12.959 11.392,-19.043 20.468,-14.412m302.089,-0.899c5.261,1.878 11.001,9.681 8.707,11.834c-1.55,1.456 -27.828,20.765 -28.258,20.765c-0.693,0 0.352,-14.728 1.308,-18.439c2.916,-11.331 10.24,-17.014 18.243,-14.16m-474.981,32.641c-0.794,9.217 -2.708,14.73 -6.393,18.415c-7.201,7.204 -17.958,4.246 -21.903,-6.024l-0.87,-2.258l14.467,-10.758l14.465,-10.759l0.38,2.646c0.211,1.453 0.143,5.389 -0.146,8.738m182.551,-3.068c-0.742,20.205 -10.732,30.791 -22.215,23.543c-4.099,-2.588 -7.946,-9.649 -6.021,-11.05c0.562,-0.409 7.115,-5.295 14.564,-10.852c7.445,-5.561 13.641,-10.116 13.761,-10.124c0.122,-0.01 0.083,3.808 -0.089,8.483m304.246,-0.289c-0.677,17.905 -7.154,27.156 -17.884,25.546c-4.683,-0.7 -10.324,-6.461 -10.923,-11.154c-0.156,-1.214 26.432,-21.862 28.299,-21.976c0.654,-0.042 0.745,1.323 0.508,7.584m477.908,-1.477c-21.322,16.306 -35.195,46.931 -36.237,79.983c-0.792,25.125 9.506,25.468 25.869,0.865c15.918,-23.929 23.323,-55.669 18.083,-77.499c-1.87,-7.795 -1.889,-7.802 -7.715,-3.349m14.179,62.602c-23.609,15.003 -39.928,40.745 -46.554,73.432c-4.234,20.895 1.738,25.526 17.395,13.486l3.855,-2.966l-3.342,4.456c-16.85,22.462 -24.723,47.483 -17.689,56.228c1.357,1.688 8.446,-0.927 15.483,-5.714c24.127,-16.405 40.957,-40.089 47.626,-67.023c1.178,-4.746 2.175,-18.505 1.344,-18.505c-4.667,0 -23.624,10.772 -31.536,17.921c-3.224,2.912 -3.329,2.964 -1.656,0.805c15.709,-20.293 26.403,-55.26 22.512,-73.608c-0.589,-2.776 -0.792,-2.737 -7.438,1.488m-1001.59,93.351c-12.094,3.982 -17.548,14.019 -18.019,33.161c-0.662,26.919 6.696,38.373 24.645,38.373c18.317,0 27.38,-13.48 26.338,-39.172c-0.677,-16.642 -5.605,-27.075 -14.811,-31.347c-3.818,-1.771 -14.108,-2.346 -18.153,-1.015m304.106,0.028c-23.237,7.55 -25.924,59.497 -3.623,70.003c5.185,2.443 16.09,2.248 21.439,-0.385c20.51,-10.097 20.905,-58.671 0.56,-68.5c-3.953,-1.909 -14.048,-2.524 -18.376,-1.118m59.866,0.368c-11.537,4.099 -17.459,16.129 -17.428,35.417c0.036,23.949 7.724,35.336 24.234,35.888c19.121,0.638 28.736,-14.324 27.015,-42.05c-1.448,-23.33 -15.728,-35.683 -33.821,-29.255m61.708,-0.336c-13.173,4.117 -20.194,20.324 -18.173,41.946c1.956,20.882 9.253,29.528 24.924,29.528c17.382,0 26.502,-12.397 26.499,-36.011c-0.005,-26.84 -13.792,-41.545 -33.25,-35.463m60.625,0.099c-23.056,7.224 -25.445,59.442 -3.195,69.878c7.396,3.469 19.709,1.875 26.035,-3.37c12.884,-10.681 14.348,-47.241 2.423,-60.508c-5.47,-6.081 -16.585,-8.722 -25.263,-6m-430.537,5.352c-5.771,3.068 -10.649,5.732 -10.837,5.922c-0.354,0.352 2.347,7.284 3.18,8.162c0.354,0.372 9.582,-4.214 16.277,-8.089c0.24,-0.138 0.433,11.173 0.433,25.135l-0,25.387l-17.861,0l-0,9.22l44.944,-0l-0,-9.22l-16.134,0l-0,-62.229l-9.506,0.136l-10.496,5.576m61.096,-0.071c-12.691,6.779 -11.644,5.647 -9.694,10.491c1.969,4.891 0.933,4.919 10.431,-0.287c4.336,-2.375 7.977,-4.32 8.092,-4.32c0.112,-0 0.206,11.407 0.206,25.351l-0,25.353l-18.439,0l-0,9.22l44.943,-0l0,-9.22l-15.558,0l-0,-62.229l-9.506,0.047l-10.475,5.594m60.7,0.086c-5.969,3.136 -10.967,5.816 -11.11,5.959c-0.276,0.276 2.56,7.277 3.289,8.123c0.24,0.276 4.06,-1.474 8.49,-3.891c4.431,-2.417 8.209,-4.393 8.397,-4.393c0.19,-0 0.344,11.407 0.344,25.351l-0,25.353l-18.439,0l-0,9.22l44.943,-0l0,-9.22l-15.555,0l-0,-62.229l-4.756,0.013l-4.753,0.013l-10.85,5.701m685.654,8.899c-6.355,175.934 -145.814,315.406 -322.609,322.643l-6.193,0.256l-0,-2.701c-0,-10.905 4.065,-76.337 4.787,-77.061c0.151,-0.148 3.607,-0.513 7.682,-0.81c130.011,-9.469 230.04,-111.136 237.363,-241.251l0.399,-7.058l2.943,-0.039c1.617,-0.021 18.499,-1.023 37.513,-2.229c19.015,-1.209 35.456,-2.227 36.534,-2.269l1.964,-0.073l-0.383,10.592m-848.982,-4.503c2.458,1.725 6.219,7.116 6.219,8.92c0,0.771 -26.335,20.968 -28.421,21.799c-1.258,0.5 -0.026,-16.09 1.531,-20.59c3.839,-11.108 12.923,-15.559 20.671,-10.129m304.183,-0.02c2.654,1.87 5.686,6.297 5.863,8.563c0.182,2.315 -27.854,22.882 -28.578,20.962c-1.516,-4.013 1.497,-20.246 4.69,-25.278c4.048,-6.378 12.257,-8.313 18.025,-4.247m59.208,-0.917c3.276,1.672 9.308,9.665 8.037,10.649c-0.107,0.083 -1.747,1.281 -3.651,2.667c-1.901,1.383 -8.483,6.245 -14.624,10.806l-11.17,8.289l0.307,-7.69c0.787,-19.757 9.9,-30.435 21.101,-24.721m62.398,0.932c2.503,1.758 5.318,5.704 5.944,8.326c0.302,1.264 -20.849,18.08 -27.88,22.169c-1.334,0.773 -0.524,-15.046 1.018,-19.895c3.563,-11.217 13.136,-16.069 20.918,-10.6m59.242,-0.898c4.685,2.391 9.298,9.665 7.123,11.235c-0.589,0.427 -7.165,5.287 -14.613,10.803l-13.54,10.029l-0.164,-4.758c-0.698,-19.988 9.581,-33.234 21.194,-27.309m257.557,4.466c-0.008,51.46 -28.591,114.319 -69.93,153.794c-38.545,36.805 -97.74,62.901 -142.884,62.992l-2.792,0.005l0.349,-3.313c18.411,-174.727 43.085,-201.524 197.972,-215.012c6.813,-0.591 13.491,-1.107 14.837,-1.14l2.448,-0.063l0,2.737m261.227,7.975c-10.832,2.357 -26.776,10.954 -38.115,20.551c-16.379,13.863 -33.068,39.907 -34.034,53.111l-0.399,5.461l3.087,0.386c8.091,1.01 13.295,-0.435 23.009,-6.391c3.876,-2.376 2.883,-1.373 -2.88,2.914c-10.207,7.589 -20.53,18.736 -30.044,32.443c-11.108,16.001 -5.579,23.168 13.092,16.967c26.648,-8.852 53.228,-30.414 64.862,-52.616c2.406,-4.594 6.972,-15.428 6.972,-16.548c-0,-0.18 -2.787,-0.157 -6.193,0.049c-12.298,0.748 -26.844,5.558 -38.605,12.767c-1.347,0.825 -2.451,1.378 -2.451,1.227c0,-0.149 0.966,-0.87 2.149,-1.6c22.569,-13.949 45.1,-46.256 45.1,-64.669c-0,-5.643 0.406,-5.347 -5.55,-4.052m-995.103,11.245c0.862,7.275 -1.175,18.247 -4.378,23.586c-5.842,9.735 -18.372,9.219 -23.185,-0.953c-2.073,-4.386 -2.692,-3.647 12.681,-15.142c16.059,-12.006 14.444,-11.194 14.882,-7.491m303.876,5.556c-0.636,16.759 -5.767,24.95 -15.608,24.908c-5.576,-0.026 -9.527,-2.881 -12.129,-8.764l-1.459,-3.3l12.207,-9.086c6.714,-4.998 13.126,-9.785 14.249,-10.634c3.073,-2.328 3.086,-2.297 2.74,6.876m61.067,-0.493c-0.878,19.296 -9.808,29.753 -20.911,24.484c-4.727,-2.242 -9.701,-10.352 -7.373,-12.016c0.597,-0.43 7.03,-5.199 14.293,-10.603c7.261,-5.401 13.454,-9.665 13.762,-9.475c0.344,0.211 0.432,3.154 0.229,7.61m60.755,-5.271c0.609,20.249 -5.373,31.237 -16.637,30.557c-4.383,-0.263 -7.644,-2.299 -10.134,-6.326c-3.273,-5.294 -3.614,-4.826 11.996,-16.522c15.845,-11.873 14.668,-11.259 14.775,-7.709m60.822,5.188c-0.716,16.949 -5.966,25.494 -15.673,25.494c-7.107,0 -16.647,-10.102 -12.368,-13.1c0.716,-0.502 7.162,-5.279 14.322,-10.615c7.159,-5.337 13.251,-9.701 13.534,-9.701c0.297,-0 0.376,3.38 0.185,7.922m488.493,96.729c-30.969,3.368 -67.248,26.132 -81.223,50.965c-3.492,6.209 -3.518,5.943 0.774,7.886c16.311,7.381 59.312,-10.149 81.438,-33.203c7.522,-7.836 17.442,-23.616 15.848,-25.21c-0.362,-0.362 -14.209,-0.724 -16.837,-0.438m-27.484,56.705c-28.193,2.336 -64.852,20.497 -76.032,37.662c-13.439,20.635 43.417,15.178 77.297,-7.42c11.897,-7.935 26.794,-22.965 25.383,-25.606c-0.334,-0.62 -0.604,-1.617 -0.604,-2.214c-0,-1.937 -15.036,-3.336 -26.044,-2.422m-969.182,0.563c-13.46,3.412 -19.155,14.201 -19.155,36.289c-0,23.447 5.951,33.703 20.754,35.761c18.845,2.622 30.245,-11.121 30.234,-36.448c-0.01,-26.005 -12.886,-40.405 -31.833,-35.602m60.203,0.268c-12.767,3.599 -19.145,15.694 -19.148,36.308c0,22.311 7.602,34.198 22.846,35.708c16.196,1.607 26.486,-9.331 28.424,-30.216c2.742,-29.572 -11.191,-47.707 -32.122,-41.8m243.595,-0.102c-12.991,3.761 -19.148,15.033 -19.252,35.259c-0.12,23.158 6.529,34.575 21.343,36.635c20.502,2.849 32.755,-15.342 29.643,-44.008c-2.328,-21.461 -15.113,-32.693 -31.734,-27.886m123.017,-0.372c-14.894,3.19 -22.778,19.674 -20.577,43.017c1.727,18.342 8.324,27.455 21.166,29.239c18.577,2.583 30.224,-11.196 30.234,-35.776c0.011,-26.174 -12.089,-40.496 -30.823,-36.48m59.346,0.391c-12.67,3.299 -19.301,15.738 -19.301,36.198c0,22.554 7.527,34.383 22.846,35.901c19.21,1.907 30.658,-15.139 28.432,-42.334c-1.888,-23.069 -14.09,-34.427 -31.977,-29.765m-370.634,5.651c-6.099,3.201 -11.092,6.113 -11.092,6.469c-0.002,1.232 3.058,7.85 3.631,7.85c0.536,0 6.565,-3.136 13.511,-7.032l3.027,-1.695l-0,50.79l-18.439,0l-0,9.217l44.943,0l0,-9.217l-15.558,0l-0,-62.229l-4.464,0.013l-4.467,0.013l-11.092,5.821m60.932,-0.06c-5.862,3.139 -10.876,5.785 -11.139,5.881c-0.643,0.234 2.568,7.985 3.449,8.324c0.382,0.145 3.5,-1.277 6.93,-3.165c3.43,-1.885 7.078,-3.857 8.107,-4.38l1.873,-0.954l-0,50.736l-18.439,0l-0,9.217l44.943,0l0,-9.217l-15.555,0l-0,-62.229l-4.756,0.042l-4.753,0.042l-10.66,5.703m182.364,0.06c-6.021,3.196 -11.045,5.902 -11.168,6.014c-0.445,0.403 3.123,8.302 3.753,8.302c0.581,0.003 4.084,-1.828 13.322,-6.966l3.026,-1.683l-0,50.715l-17.864,0l0,9.217l44.944,0l0,-9.217l-16.134,0l0,-62.229l-4.464,0.019l-4.466,0.018l-10.949,5.81m-347.223,3.732c2.224,1.11 3.57,2.318 5.034,4.521c3.659,5.514 4.144,4.834 -11.879,16.708l-14.115,10.459l-0.164,-6.178c-0.513,-19.587 9.276,-31.414 21.124,-25.51m60.286,-0.437c3.787,1.719 9.482,9.599 7.972,11.032c-0.625,0.594 -27.302,20.327 -28.38,20.991c-2.18,1.347 0.292,-18.775 2.969,-24.168c3.776,-7.603 10.915,-10.819 17.439,-7.855m242.733,-0.183c3.583,1.495 8.769,7.743 8.769,10.564c-0,0.82 -28.224,21.587 -28.693,21.113c-0.677,-0.687 -0.166,-12.232 0.73,-16.53c2.56,-12.287 10.683,-18.696 19.194,-15.147m122.689,0.573c2.084,1.04 3.55,2.35 5.032,4.501c3.805,5.526 4.3,4.828 -12.004,16.915l-14.342,10.631l0.326,-8.545c0.739,-19.389 9.516,-29.218 20.988,-23.502m60.383,-0.39c3.776,1.713 9.495,9.62 7.972,11.016c-0.698,0.638 -27.409,20.411 -28.38,21.01c-1.078,0.664 -0.49,-12.702 0.794,-17.994c2.873,-11.85 11.243,-17.835 19.614,-14.032m-476.283,32.343c-1.185,13.561 -5.615,20.627 -13.876,22.125c-5.363,0.971 -11.329,-2.837 -13.96,-8.915l-1.388,-3.211l14.496,-10.775l14.496,-10.771l0.38,2.747c0.211,1.513 0.143,5.472 -0.148,8.8m60.989,-3.312c-0.714,19.23 -10.079,30.156 -20.97,24.46c-3.86,-2.018 -9.314,-9.967 -7.845,-11.433c1.159,-1.159 28.143,-21.148 28.607,-21.192c0.289,-0.026 0.38,3.524 0.208,8.165m242.47,9.071c-3.844,18.439 -21.632,22.832 -27.497,6.789l-0.953,-2.607l14.493,-10.771l14.496,-10.772l0.162,6.618c0.104,4.25 -0.146,8.092 -0.701,10.743m122.338,-5.623c-1.081,13.129 -5.74,20.515 -13.868,21.989c-5.368,0.974 -11.329,-2.837 -13.962,-8.923l-1.394,-3.219l14.499,-10.766l14.501,-10.767l0.344,3.039c0.187,1.67 0.133,5.561 -0.12,8.647m61.14,-5.714c0,21.577 -10.818,33.641 -22.916,25.549c-2.581,-1.727 -6.789,-8.292 -6.294,-9.819c0.185,-0.578 28.114,-21.572 28.778,-21.634c0.237,-0.024 0.432,2.633 0.432,5.904m417.448,15.092c-36.037,5.761 -72.657,27.187 -61.917,36.225c12.436,10.461 63.545,4.065 88.705,-11.103c9.532,-5.745 23.971,-18.728 22.052,-19.83c-0.907,-0.521 -12.243,-3.878 -16.061,-4.755c-5.696,-1.31 -25.87,-1.641 -32.779,-0.537m-35.146,44.728c-19.955,1.088 -50.668,10.545 -57.974,17.848c-2.109,2.109 -5.148,7.409 -5.081,8.865c0.097,2.169 14.697,7.448 25.659,9.277c8.412,1.401 38.977,1.432 40.37,0.041c0.214,-0.213 0.896,-0.388 1.518,-0.388c1.571,0 14.267,-2.81 15.673,-3.469c0.636,-0.297 3.097,-1.226 5.475,-2.065c9.084,-3.206 32.164,-16.772 30.745,-18.069c-0.271,-0.25 -4.514,-2.146 -9.426,-4.219c-15.894,-6.701 -28.627,-8.821 -46.959,-7.821m-56.755,40.256c-20.83,1.297 -38.266,6.703 -43.18,13.384l-1.732,2.356l1.281,2.287c2.886,5.152 7.475,7.74 20.007,11.285c30.588,8.654 53.788,9.1 76.574,1.474c5.545,-1.854 21.952,-9.839 21.955,-10.683c-0,-0.662 -14.064,-9.329 -18.174,-11.204c-14.79,-6.74 -36.575,-10.157 -56.731,-8.899m-62.804,33.479c-17.392,1.964 -25,6.446 -21.283,12.54c13.894,22.791 81.847,34.12 112.42,18.746c5.29,-2.659 5.368,-2.404 -2.536,-8.451c-24.14,-18.462 -55.578,-26.567 -88.601,-22.835m-770.341,22.429c-13.707,2.865 -19.902,14.251 -19.902,36.568c-0,24.33 6.727,34.794 23.046,35.854c18.413,1.196 28.916,-13.753 27.786,-39.545c-1.065,-24.311 -12.707,-36.685 -30.93,-32.877m182.783,0.01c-14.129,2.789 -21.556,16.845 -20.749,39.261c0.807,22.466 8.826,32.964 25.203,33.005c20.03,0.05 29.942,-19.157 25.259,-48.944c-2.708,-17.23 -14.334,-26.356 -29.713,-23.322m181.632,0.172c-13.316,3.456 -19.931,15.465 -19.942,36.196c-0.01,23.262 7.553,34.883 23.453,36.026c17.816,1.279 27.898,-11.873 27.911,-36.412c0.013,-26.429 -12.525,-40.719 -31.422,-35.81m-309.991,5.602c-13.308,7.029 -12.285,5.917 -9.985,10.845l1.919,4.112l7.983,-4.331c4.388,-2.38 8.084,-4.331 8.209,-4.331c0.127,-0 0.229,11.279 0.229,25.064l-0,25.065l-17.861,-0l-0,9.219l44.944,0l-0,-9.219l-16.134,-0l-0,-62.229l-4.178,0.013c-4.172,0.013 -4.19,0.018 -15.126,5.792m60.369,0.159c-6.094,3.216 -11.084,6.178 -11.092,6.581c-0.005,0.404 0.761,2.438 1.706,4.521l1.716,3.79l3.613,-2c8.295,-4.589 12.376,-6.756 12.738,-6.756c0.211,-0 0.383,11.279 0.383,25.064l-0,25.065l-18.439,-0l-0,9.219l44.943,0l0,-9.219l-15.558,-0l-0,-62.229l-4.464,0.057l-4.467,0.058l-11.079,5.849m182.497,0.07c-6.86,3.665 -11.173,6.292 -11.069,6.753c0.224,1.011 3.133,7.957 3.331,7.957c0.086,-0 3.938,-2.055 8.558,-4.566l8.397,-4.568l-0,50.619l-18.437,-0l0,9.219l44.941,0l0,-9.219l-15.556,-0l0,-62.229l-4.466,0.018l-4.464,0.018l-11.235,5.998m129.929,-4.393c-1.583,0.896 -6.69,3.622 -11.347,6.06l-8.467,4.43l1.761,4.162c0.969,2.289 1.839,4.245 1.932,4.349c0.092,0.102 3.954,-1.888 8.577,-4.419l8.409,-4.608l0,50.614l-18.439,-0l0,9.219l44.944,0l-0,-9.219l-15.559,-0l0,-62.229l-4.464,0.005c-3.831,0.005 -4.875,0.237 -7.347,1.636m53.067,4.107c-13.248,6.961 -12.256,5.914 -10.183,10.719c2.021,4.683 1.185,4.712 10.597,-0.375c4.063,-2.195 7.498,-3.992 7.636,-3.992c0.136,-0 0.248,11.279 0.248,25.064l-0,25.065l-17.861,-0l-0,9.219l44.941,0l0,-9.219l-16.131,-0l-0,-62.229l-4.178,0.013c-4.167,0.013 -4.209,0.029 -15.069,5.735m232.436,-2.602c-3.001,0.982 -6.915,4.008 -6.915,5.344c-0,2.737 2.195,7.485 4.758,10.287c5.659,6.194 28.617,19.385 41.912,24.086c2.378,0.841 4.842,1.766 5.475,2.055c12.381,5.664 44.472,6.792 58.127,2.044c5.526,-1.922 5.542,-1.662 -0.545,-8.188c-17.66,-18.931 -42.672,-31.341 -70.547,-35c-10.407,-1.368 -28.911,-1.727 -32.265,-0.628m-703.765,5.769c4.021,1.195 9.519,7.482 9.438,10.797c-0.01,0.409 -6.428,5.47 -14.262,11.249l-14.24,10.503l-0.167,-5.602c-0.445,-14.991 4.352,-25.241 12.751,-27.242c2.742,-0.653 3.38,-0.625 6.48,0.295m184.598,0.872c4.081,2.081 8.514,9.048 6.829,10.733c-2.126,2.125 -27.906,20.791 -28.352,20.528c-0.682,-0.407 0.05,-12.116 1.055,-16.848c2.75,-12.96 11.392,-19.043 20.468,-14.413m182.955,0.263c2.521,1.48 4.839,4.389 6.307,7.915l0.881,2.12l-13.962,10.321c-7.681,5.675 -14.327,10.53 -14.77,10.787c-1.122,0.651 -0.484,-13.66 0.821,-18.402c3.391,-12.303 12.212,-17.728 20.723,-12.741m287.08,11.418c-4.378,1.443 -6.115,3.451 -5.56,6.425c2.588,13.85 34.216,37.477 62.567,46.738c12.689,4.143 35.323,6.907 39.131,4.776c0.292,-0.164 2.115,-0.622 4.052,-1.021c5.292,-1.088 5.376,-1.224 2.722,-4.437c-1.266,-1.534 -3.763,-4.785 -5.553,-7.225c-15.371,-20.976 -44.787,-38.303 -75.178,-44.28c-7.563,-1.487 -19.092,-1.994 -22.181,-0.976m-642.927,20.061c-0.794,9.217 -2.708,14.731 -6.393,18.416c-7.201,7.201 -17.958,4.245 -21.903,-6.024l-0.87,-2.258l14.467,-10.759l14.465,-10.758l0.38,2.646c0.211,1.453 0.143,5.385 -0.146,8.737m182.551,-3.068c-0.742,20.205 -10.732,30.792 -22.215,23.544c-4.099,-2.589 -7.946,-9.649 -6.021,-11.05c0.562,-0.409 7.115,-5.295 14.564,-10.853c7.445,-5.56 13.641,-10.115 13.761,-10.126c0.122,-0.008 0.083,3.811 -0.089,8.485m182.7,-2.979c0.776,19.655 -9.206,32.727 -20.929,27.401c-3.57,-1.623 -8.972,-8.915 -8.222,-11.103c0.276,-0.81 27.786,-21.163 28.396,-21.007c0.315,0.081 0.656,2.201 0.755,4.709" style="fill:#fff;"/></g></svg>